<?xml version="1.0" encoding="utf-8"?>
<!-- Generator: Adobe Illustrator 24.1.2, SVG Export Plug-In . SVG Version: 6.00 Build 0)  -->
<svg version="1.1" id="Layer_1" xmlns="http://www.w3.org/2000/svg" xmlns:xlink="http://www.w3.org/1999/xlink" x="0px" y="0px"
	 width="1920px" height="1080px" viewBox="0 0 1920 1080" style="enable-background:new 0 0 1920 1080;" xml:space="preserve">
<style type="text/css">
	.st0{opacity:0.5;clip-path:url(#SVGID_2_);fill:url(#SVGID_3_);}
	.st1{opacity:0.5;clip-path:url(#SVGID_2_);fill:url(#SVGID_4_);}
	.st2{opacity:0.35;clip-path:url(#SVGID_2_);fill:url(#SVGID_5_);}
	.st3{opacity:0.2;clip-path:url(#SVGID_2_);fill:url(#SVGID_6_);}
</style>
<g>
	<defs>
		<rect id="SVGID_1_" x="-8" y="1" width="1937" height="1080"/>
	</defs>
	<clipPath id="SVGID_2_">
		<use xlink:href="#SVGID_1_"  style="overflow:visible;"/>
	</clipPath>
	
		<radialGradient id="SVGID_3_" cx="1849.1268" cy="948.1086" r="464.1524" gradientTransform="matrix(0.9956 0.3304 -0.2276 0.6859 210.2782 -287.5243)" gradientUnits="userSpaceOnUse">
		<stop  offset="6.145251e-02" style="stop-color:#7B48B7"/>
		<stop  offset="1" style="stop-color:#7B48B7;stop-opacity:0"/>
	</radialGradient>
	<path class="st0" d="M2309,1130.9c-60.1,181-320.8,257.5-582.2,170.7c-261.5-86.8-424.7-303.9-364.6-484.9
		c60.1-181,320.8-257.5,582.2-170.7S2369.1,949.8,2309,1130.9z"/>
	
		<radialGradient id="SVGID_4_" cx="77.5919" cy="1594.1887" r="464.1524" gradientTransform="matrix(0.9956 0.3304 -0.2276 0.6859 141.166 -79.2757)" gradientUnits="userSpaceOnUse">
		<stop  offset="6.145251e-02" style="stop-color:#7B48B7"/>
		<stop  offset="1" style="stop-color:#7B48B7;stop-opacity:0"/>
	</radialGradient>
	<path class="st1" d="M329,1196.9c-60.1,181-320.8,257.5-582.2,170.7S-678,1063.7-617.9,882.6c60.1-181,320.8-257.5,582.2-170.7
		S389.1,1015.8,329,1196.9z"/>
	
		<radialGradient id="SVGID_5_" cx="2547.3713" cy="1239.1301" r="464.1524" gradientTransform="matrix(0.3275 0.1087 -0.1122 0.3382 965.6097 357.7488)" gradientUnits="userSpaceOnUse">
		<stop  offset="6.145251e-02" style="stop-color:#F600FF"/>
		<stop  offset="1" style="stop-color:#E62AFF;stop-opacity:0"/>
	</radialGradient>
	<path class="st2" d="M1816.6,1105.4c-29.6,89.3-123.4,138.5-209.4,109.9s-131.7-124-102.1-213.3s123.4-138.5,209.4-109.9
		C1800.6,920.6,1846.3,1016.1,1816.6,1105.4z"/>
	
		<radialGradient id="SVGID_6_" cx="-2030.1952" cy="2085.113" r="240.511" gradientTransform="matrix(0.3275 0.1087 -0.1122 0.3382 920.9902 492.1962)" gradientUnits="userSpaceOnUse">
		<stop  offset="6.145251e-02" style="stop-color:#F600FF"/>
		<stop  offset="1" style="stop-color:#E62AFF;stop-opacity:0"/>
	</radialGradient>
	<path class="st3" d="M102.7,1003.4c-15.4,46.3-63.9,71.8-108.5,57S-74,996.1-58.7,949.9s63.9-71.8,108.5-57
		S118.1,957.2,102.7,1003.4z"/>
</g>
</svg>
