<?xml version="1.0" encoding="utf-8"?>
<!-- Generator: Adobe Illustrator 24.1.2, SVG Export Plug-In . SVG Version: 6.00 Build 0)  -->
<svg version="1.1" id="Layer_1" xmlns="http://www.w3.org/2000/svg" xmlns:xlink="http://www.w3.org/1999/xlink" x="0px" y="0px"
	 width="1920px" height="1080px" viewBox="0 0 1920 1080" style="enable-background:new 0 0 1920 1080;" xml:space="preserve">
<style type="text/css">
	.st0{opacity:0.5;clip-path:url(#SVGID_2_);fill:url(#SVGID_3_);enable-background:new    ;}
	.st1{opacity:0.2;clip-path:url(#SVGID_2_);fill:url(#SVGID_4_);enable-background:new    ;}
</style>
<g>
	<defs>
		<rect id="SVGID_1_" x="-8" y="-1" width="1937" height="1087"/>
	</defs>
	<clipPath id="SVGID_2_">
		<use xlink:href="#SVGID_1_"  style="overflow:visible;"/>
	</clipPath>
	
		<radialGradient id="SVGID_3_" cx="961.761" cy="752.8087" r="464.1394" gradientTransform="matrix(0.6303 0.8385 0.5777 -0.4342 -977.4994 646.6656)" gradientUnits="userSpaceOnUse">
		<stop  offset="6.145251e-02" style="stop-color:#7B48B7"/>
		<stop  offset="1" style="stop-color:#7B48B7;stop-opacity:0"/>
	</radialGradient>
	<path class="st0" d="M363.3,1525c-152.5,114.6-410.3,29-575.8-191.2s-176.1-491.7-23.6-606.4c152.5-114.6,410.3-29,575.8,191.2
		S515.8,1410.4,363.3,1525z"/>
	
		<radialGradient id="SVGID_4_" cx="-152.7855" cy="1686.4789" r="240.7368" gradientTransform="matrix(0.2073 0.2758 0.2848 -0.2141 -345.5922 1322.7817)" gradientUnits="userSpaceOnUse">
		<stop  offset="6.145251e-02" style="stop-color:#F600FF"/>
		<stop  offset="1" style="stop-color:#E62AFF;stop-opacity:0"/>
	</radialGradient>
	<path class="st1" d="M154.2,987.5c-39,29.3-93.4,22.6-121.6-14.9C4.3,935,13.1,880.8,52,851.6c38.9-29.3,93.4-22.6,121.6,14.9
		S193.1,958.3,154.2,987.5z"/>
</g>
</svg>
