<?xml version="1.0" encoding="utf-8"?>
<!-- Generator: Adobe Illustrator 24.1.2, SVG Export Plug-In . SVG Version: 6.00 Build 0)  -->
<svg version="1.1" id="Layer_1" xmlns="http://www.w3.org/2000/svg" xmlns:xlink="http://www.w3.org/1999/xlink" x="0px" y="0px"
	 width="1080px" height="1920px" viewBox="0 0 1080 1920" style="enable-background:new 0 0 1080 1920;" xml:space="preserve">
<style type="text/css">
	.st0{opacity:0.5;clip-path:url(#SVGID_2_);fill:url(#SVGID_3_);enable-background:new    ;}
	.st1{opacity:0.5;clip-path:url(#SVGID_2_);fill:url(#SVGID_4_);enable-background:new    ;}
	.st2{opacity:0.35;clip-path:url(#SVGID_2_);fill:url(#SVGID_5_);enable-background:new    ;}
	.st3{opacity:0.15;clip-path:url(#SVGID_2_);fill:url(#SVGID_6_);enable-background:new    ;}
	.st4{opacity:0.2;clip-path:url(#SVGID_2_);fill:url(#SVGID_7_);enable-background:new    ;}
</style>
<g>
	<defs>
		<rect id="SVGID_1_" x="-3" y="-9" width="1087" height="1937"/>
	</defs>
	<clipPath id="SVGID_2_">
		<use xlink:href="#SVGID_1_"  style="overflow:visible;"/>
	</clipPath>
	
		<radialGradient id="SVGID_3_" cx="1464.311" cy="901.9641" r="464.1059" gradientTransform="matrix(4.561794e-02 1.048 -0.722 3.140560e-02 1619.1678 -1355.9187)" gradientUnits="userSpaceOnUse">
		<stop  offset="6.145251e-02" style="stop-color:#7B48B7"/>
		<stop  offset="1" style="stop-color:#7B48B7;stop-opacity:0"/>
	</radialGradient>
	<path class="st0" d="M689.7,222c-12-275.2,132.8-505,323.4-513.4s354.7,208,366.7,483.3c12,275.2-132.8,505-323.4,513.3
		C865.8,713.6,701.7,497.2,689.7,222z"/>
	
		<radialGradient id="SVGID_4_" cx="53.6937" cy="1310.3777" r="464.1394" gradientTransform="matrix(-0.8385 -0.6303 0.4342 -0.5777 -567.2232 2647.2627)" gradientUnits="userSpaceOnUse">
		<stop  offset="6.145251e-02" style="stop-color:#7B48B7"/>
		<stop  offset="1" style="stop-color:#7B48B7;stop-opacity:0"/>
	</radialGradient>
	<path class="st1" d="M164.3,1580.4c220.2,165.5,305.8,423.3,191.2,575.8c-114.6,152.5-386.2,141.8-606.4-23.6
		s-305.8-423.3-191.2-575.8C-327.4,1404.2-55.9,1414.9,164.3,1580.4z"/>
	
		<radialGradient id="SVGID_5_" cx="2240.8083" cy="1168.165" r="464.1219" gradientTransform="matrix(1.502109e-02 0.3447 -0.356 1.546239e-02 1471.1606 -723.683)" gradientUnits="userSpaceOnUse">
		<stop  offset="6.145251e-02" style="stop-color:#F600FF"/>
		<stop  offset="1" style="stop-color:#E62AFF;stop-opacity:0"/>
	</radialGradient>
	<path class="st2" d="M918.9,74.3c-4-90.5,69-167.3,163-171.4c94-4.1,173.3,66,177.3,156.5s-69,167.3-163,171.4
		C1002.1,235,922.7,164.9,918.9,74.3z"/>
	
		<radialGradient id="SVGID_6_" cx="2368.2056" cy="1227.3533" r="464.1219" gradientTransform="matrix(-5.055211e-03 0.4154 -0.3629 3.966163e-02 1518.626 -890.6813)" gradientUnits="userSpaceOnUse">
		<stop  offset="6.145251e-02" style="stop-color:#F600FF"/>
		<stop  offset="1" style="stop-color:#E62AFF;stop-opacity:0"/>
	</radialGradient>
	<path class="st3" d="M887.9,160.7c1.3-109.1,80-206.1,175.8-216.5s172.3,69.5,171,178.5c-1.3,109.1-80,206.1-175.8,216.5
		C963,349.8,886.5,269.9,887.9,160.7z"/>
	
		<radialGradient id="SVGID_7_" cx="-2058.5105" cy="2384.3962" r="240.7368" gradientTransform="matrix(-0.2758 -0.2073 0.2141 -0.2848 -914.908 2069.2808)" gradientUnits="userSpaceOnUse">
		<stop  offset="6.145251e-02" style="stop-color:#F600FF"/>
		<stop  offset="1" style="stop-color:#E62AFF;stop-opacity:0"/>
	</radialGradient>
	<path class="st4" d="M216.5,1746.4c37.6,28.2,44.2,82.8,14.9,121.6s-83.4,47.7-121,19.4c-37.6-28.2-44.2-82.6-14.9-121.6
		C124.7,1726.9,178.9,1718.2,216.5,1746.4z"/>
</g>
</svg>
